<?xml version="1.0" encoding="utf-8"?>
<!-- Generator: Adobe Illustrator 20.1.0, SVG Export Plug-In . SVG Version: 6.00 Build 0)  -->
<svg version="1.1" id="Layer_1" xmlns="http://www.w3.org/2000/svg" xmlns:xlink="http://www.w3.org/1999/xlink" x="0px" y="0px"
	 width="300px" height="300px" viewBox="0 0 300 300" style="enable-background:new 0 0 300 300;" xml:space="preserve">
<style type="text/css">
	.st0{fill:#F78C1E;}
	.st1{fill:none;stroke:#DDE9F6;stroke-width:1.244;stroke-linecap:round;stroke-linejoin:round;stroke-miterlimit:10;}
</style>
<rect y="0" class="st0" width="300" height="300"/>
<g>
	<polygon class="st1" points="174.4,97.7 174.4,202.7 221.9,188.7 221.9,112.1 	"/>
	<polyline class="st1" points="174.8,120.5 190,118.7 216,150.5 190,181.7 174.4,179.9 	"/>
	<line class="st1" x1="189.7" y1="119.2" x2="189.7" y2="181.5"/>
	<polygon class="st1" points="150.1,249.1 125.6,236.8 125.8,63 150.4,50.9 232.3,92 232.3,208.5 	"/>
	<line class="st1" x1="150.1" y1="249" x2="150.4" y2="51"/>
	<polyline class="st1" points="125.8,78.8 106.3,72.6 91.3,80.3 91.3,219.6 106.2,227.5 125.4,221 	"/>
	<line class="st1" x1="106.3" y1="227.3" x2="106.3" y2="72.8"/>
	<polyline class="st1" points="91.1,89.9 78.1,86.8 67.7,92.8 68,208.3 78.5,213.5 91.3,210.4 	"/>
	<line class="st1" x1="78.5" y1="213.1" x2="78.2" y2="86.9"/>
	<polyline class="st1" points="174.4,195.7 209.8,186.5 209.6,158.3 	"/>
	<polyline class="st1" points="209.7,142.1 209.6,114 174.6,105 	"/>
	<line class="st1" x1="209.6" y1="114.1" x2="221.2" y2="112.3"/>
	<line class="st1" x1="209.7" y1="186.3" x2="221.9" y2="188.7"/>
</g>
</svg>
